<svg width="54" height="54" viewBox="0 0 54 54" fill="none" xmlns="http://www.w3.org/2000/svg">
<path d="M28.73 48.62H19.89C19.3039 48.62 18.7418 48.3872 18.3273 47.9727C17.9128 47.5583 17.68 46.9961 17.68 46.41V32.708H13.26C12.6739 32.708 12.1118 32.4752 11.6973 32.0607C11.2828 31.6463 11.05 31.0841 11.05 30.498V22.542C11.05 21.9559 11.2828 21.3937 11.6973 20.9793C12.1118 20.5648 12.6739 20.332 13.26 20.332H17.68V16.575C17.8349 13.2077 19.3168 10.0388 21.8016 7.76105C24.2864 5.48331 27.572 4.28207 30.94 4.42H37.57C38.1561 4.42 38.7183 4.65284 39.1327 5.06729C39.5472 5.48175 39.78 6.04387 39.78 6.63V14.586C39.78 15.1721 39.5472 15.7343 39.1327 16.1487C38.7183 16.5632 38.1561 16.796 37.57 16.796H30.94V20.332H37.57C37.9112 20.3294 38.2484 20.4059 38.5552 20.5554C38.8619 20.705 39.1299 20.9235 39.338 21.1939C39.5439 21.4684 39.683 21.787 39.7444 22.1246C39.8057 22.4621 39.7877 22.8093 39.6916 23.1387L37.4816 31.0947C37.3479 31.5727 37.0572 31.9918 36.6563 32.2845C36.2554 32.5772 35.7676 32.7263 35.2716 32.708H30.94V46.41C30.94 46.9961 30.7072 47.5583 30.2927 47.9727C29.8783 48.3872 29.3161 48.62 28.73 48.62ZM22.1 44.2H26.52V30.498C26.52 29.9119 26.7528 29.3497 27.1673 28.9353C27.5818 28.5208 28.1439 28.288 28.73 28.288H33.6804L34.6528 24.752H28.73C28.1439 24.752 27.5818 24.5192 27.1673 24.1047C26.7528 23.6902 26.52 23.1281 26.52 22.542V16.575C26.5768 15.4415 27.0674 14.3732 27.8902 13.5915C28.713 12.8098 29.8051 12.3746 30.94 12.376H35.36V8.84H30.94C28.7451 8.70627 26.5859 9.4434 24.931 10.8915C23.276 12.3395 22.2588 14.3817 22.1 16.575V22.542C22.1 23.1281 21.8672 23.6902 21.4527 24.1047C21.0383 24.5192 20.4761 24.752 19.89 24.752H15.47V28.288H19.89C20.4761 28.288 21.0383 28.5208 21.4527 28.9353C21.8672 29.3497 22.1 29.9119 22.1 30.498V44.2Z" fill="#23B5D3"/>
</svg>
