<svg width="54" height="55" viewBox="0 0 54 55" fill="none" xmlns="http://www.w3.org/2000/svg">
<path d="M39.7513 23.9172C39.7513 31.2242 33.8277 37.1477 26.5207 37.1477C19.2137 37.1477 13.2902 31.2242 13.2902 23.9172C13.2902 21.8582 13.7742 19.9171 14.6125 18.18H0V49.12C0 51.9562 2.3205 54.2767 5.15667 54.2767H47.8833C50.7195 54.2767 53.04 51.9562 53.04 49.12V18.18H38.4282C39.2673 19.9171 39.7513 21.8582 39.7513 23.9172Z" fill="#DFE0E2"/>
<path d="M47.8833 0.5H5.15667C2.3205 0.5 0 2.8205 0 5.65667V15.97H15.9599C18.3747 12.7662 22.1995 10.6866 26.52 10.6866C30.8406 10.6866 34.6653 12.7662 37.0801 15.97H53.04V5.65667C53.04 2.8205 50.7195 0.5 47.8833 0.5ZM4.24025 13.5508H2.3205V6.11414C2.3205 4.81318 3.11315 3.69861 4.24099 3.22493L4.24025 13.5508ZM7.38582 13.5508H5.56699V2.98109H7.38582V13.5508ZM10.5307 13.5508H8.71182V2.98109H10.5307V13.5508ZM13.6733 6.11414V10.4177V13.5508H11.8566V2.98109H13.6733V6.11414ZM50.3519 10.4177C50.3519 12.1489 48.9493 13.5508 47.2203 13.5508H42.1307C40.401 13.5508 38.9984 12.1489 38.9984 10.4177V6.11414C38.9984 4.38297 40.401 2.98109 42.1307 2.98109H47.2203C48.95 2.98109 50.3519 4.38297 50.3519 6.11414V10.4177Z" fill="#DFE0E2"/>
<path d="M26.5207 35.6007C32.9563 35.6007 38.1733 30.3814 38.1733 23.9474C38.1733 17.5126 32.957 12.2933 26.5207 12.2933C20.0837 12.2933 14.8667 17.5126 14.8667 23.9474C14.8667 30.3807 20.0837 35.6007 26.5207 35.6007ZM26.52 14.6624C31.6472 14.6624 35.8049 18.8194 35.8049 23.9474C35.8049 29.0746 31.6479 33.2323 26.52 33.2323C21.3921 33.2323 17.2351 29.0753 17.2351 23.9474C17.2358 18.8187 21.3928 14.6624 26.52 14.6624Z" fill="#DFE0E2"/>
</svg>
