<svg width="54" height="54" viewBox="0 0 54 54" fill="none" xmlns="http://www.w3.org/2000/svg">
<path d="M11.8724 53.0388H0.876107V17.6275H11.8724V53.0388ZM6.36835 12.7971C2.85208 12.7971 0 9.88462 0 6.36835C2.51679e-08 4.67936 0.670949 3.05954 1.86525 1.86525C3.05954 0.670949 4.67936 0 6.36835 0C8.05734 0 9.67716 0.670949 10.8715 1.86525C12.0658 3.05954 12.7367 4.67936 12.7367 6.36835C12.7367 9.88462 9.88344 12.7971 6.36835 12.7971ZM53.0282 53.0388H42.0555V35.8008C42.0555 31.6926 41.9726 26.4241 36.3383 26.4241C30.6211 26.4241 29.745 30.8875 29.745 35.5048V53.0388H18.7605V17.6275H29.307V22.4579H29.4609C30.929 19.6757 34.5151 16.7396 39.8652 16.7396C50.9942 16.7396 53.04 24.0681 53.04 33.5869V53.0388H53.0282Z" fill="#23B5D3"/>
</svg>
